<?xml version="1.0" encoding="UTF-8"?>
<svg width="1024" height="1024" xmlns="http://www.w3.org/2000/svg">
  <defs>
    <radialGradient id="bgGrad213">
      <stop offset="0%" style="stop-color:#FFD700;stop-opacity:0.2" />
      <stop offset="100%" style="stop-color:#2d1810;stop-opacity:1" />
    </radialGradient>
    <linearGradient id="bodyGrad213">
      <stop offset="0%" style="stop-color:#FFB6B6" />
      <stop offset="100%" style="stop-color:#FF8C42" />
    </linearGradient>
    <filter id="glow213">
      <feGaussianBlur stdDeviation="3" result="coloredBlur"/>
      <feMerge>
        <feMergeNode in="coloredBlur"/>
        <feMergeNode in="SourceGraphic"/>
      </feMerge>
    </filter>
  </defs>
  <rect width="1024" height="1024" fill="#2d1810"/>
  <circle cx="512" cy="512" r="700" fill="url(#bgGrad213)"/>
  <circle cx="512" cy="512" r="400" fill="none" stroke="#FFD700" stroke-width="1" opacity="0.2"/>
  <ellipse cx="512" cy="580" rx="280" ry="320" fill="url(#bodyGrad213)" stroke="#FFD700" stroke-width="6" filter="url(#glow213)"/>
  <circle cx="512" cy="580" r="180" fill="none" stroke="#FFD700" stroke-width="2" opacity="0.4"/>
  <path d="M 280 520 Q 140 480 100 380" stroke="#FF8C42" stroke-width="60" fill="none" stroke-linecap="round"/>
  <circle cx="100" cy="380" r="35" fill="#FF8C42" stroke="#FFD700" stroke-width="4"/>
  <path d="M 744 520 Q 884 480 924 380" stroke="#FF8C42" stroke-width="60" fill="none" stroke-linecap="round"/>
  <circle cx="924" cy="380" r="35" fill="#FF8C42" stroke="#FFD700" stroke-width="4"/>
  <circle cx="400" cy="480" r="50" fill="white" stroke="#FFD700" stroke-width="3"/>
  <circle cx="624" cy="480" r="50" fill="white" stroke="#FFD700" stroke-width="3"/>
  <circle cx="400" cy="480" r="28" fill="black"/>
  <circle cx="624" cy="480" r="28" fill="black"/>
  <circle cx="408" cy="472" r="10" fill="#FFD700"/>
  <circle cx="632" cy="472" r="10" fill="#FFD700"/>
  
  <rect x="0" y="920" width="1024" height="104" fill="rgba(0,0,0,0.6)"/>
  <text x="512" y="970" font-size="56" font-family="Arial" font-weight="bold" fill="#FFD700" text-anchor="middle">Claw #213</text>
  <text x="512" y="1005" font-size="32" font-family="Arial" fill="#FFD700" text-anchor="middle" opacity="0.8">92/100</text>
</svg>